<svg xmlns="http://www.w3.org/2000/svg" width="139" height="30" viewBox="0 0 275.25 59.25" version="1.2"><path fill="#000" d="M0 0h275.25v59.25H0z"></path> <path d="M22.03 56.01l-1.58-10.6v.16c-3.33.27-6.65.56-9.98.85l-1.6 10.93-8.12.9C3.78 39.28 6.82 20.61 9.86 2.21l11.9-.22c3.03 17.97 6.04 35.7 9.04 53.2l-8.77.82zm-6.5-44.4h-.16c-1.29 9.04-2.57 18.13-3.85 27.27l7.9-.59-3.9-26.68zM65 52.64c-3.01.18-6.02.37-9.03.58-3.5-12.35-7-24.82-10.49-37.45h-.16L45.26 54c-2.61.2-5.22.4-7.83.63l.08-52.89 11.03-.15a6388.2 6388.2 0 0 0 8.5 30.82h.16l.06-30.93 7.83-.09L65 52.64zm17.76-.95c-2.93.13-5.87.28-8.8.43l.09-50.82 8.8-.08-.09 50.47zm45.48-1.25l-8.33.1.03-37.5h-.16a74919.8 74919.8 0 0 0-6.43 37.62l-7.37.18-6.36-37.61h-.16l-.05 37.8-7.68.28.07-50.15 12.55-.08c1.85 11.88 3.71 23.72 5.57 35.54h.16c1.87-11.9 3.75-23.75 5.63-35.59l12.55-.02-.02 49.43zm33-6.92l.01 7.08c-8-.14-16.02-.21-24.03-.2V1c8 0 16 0 24 .03v7.08l-15.2-.05v13.06c4.03.01 8.06.04 12.09.07v7.07l-12.08-.08v15.18c5.07.02 10.15.08 15.21.16zm16.21-35.29l.02 13.9c3.79.07 7.58.14 11.36.23l.01 7.17c-3.78-.1-7.57-.19-11.36-.26l.03 21.74-8.81-.24-.05-49.7c7.76.03 15.52.07 23.27.13l.01 7.2c-4.82-.07-9.65-.12-14.48-.17zm21.19 43.64l-.08-50.61 8.8.08.07 43.71c4.82.24 9.65.5 14.47.8l.01 7.39c-7.75-.53-15.5-.99-23.27-1.37zm29.9 1.84l-.08-52.13 8.8.12.07 52.7c-2.92-.24-5.85-.47-8.78-.69zM274.5 58c-3.08-.34-6.16-.68-9.24-1a3174.6 3174.6 0 0 0-6.4-19.58h-.16c-2.17 6.15-4.35 12.24-6.52 18.28-2.76-.26-5.53-.5-8.3-.74a3378.1 3378.1 0 0 0 10.1-26.65c-3.23-8.96-6.46-17.78-9.7-26.5l9.28.15c1.97 5.84 3.95 11.72 5.93 17.65h.16a3203.5 3203.5 0 0 0 6.05-17.43l8.31.16a3188 3188 0 0 1-9.65 26.56c3.39 9.54 6.77 19.24 10.14 29.1zm0 0" fill="#e50913"></path></svg>